# xmcd CD database file
#
# Track frame offsets:
#	182
#	15877
#	32135
#	47587
#	62152
#	76825
#	92270
#	108315
#	124272
#	138472
#	153060
#	168465
#	183157
#	197355
#	211617
#	228247
#	244207
#	258240
#
# Disc length: 3625 seconds
#
# Revision: 0
# Processed by: cddbd v1.5.1PL0 Copyright (c) Steve Scherf et al.
# Submitted via: CDex 1.51
#
DISCID=d30e2712
DTITLE=Louis Armstrong - Mahogany Hill Stomp
DYEAR=1989
DGENRE=Jazz
TTITLE0=Mahogany Hill Stomp
TTITLE1=I Can't Give You Anything But Love
TTITLE2=Ain't Misbehaving
TTITLE3=That Rythm Man
TTITLE4=Sweet Savannah Sue
TTITLE5=Rockin' Chair
TTITLE6=Song Of The Islands
TTITLE7=Blue, Turning Grey Over You
TTITLE8=I Can't Believe That You Are In Love With Me
TTITLE9=I'm In The Market For You
TTITLE10=Confessin'
TTITLE11=Body And Soul
TTITLE12=You're Driving Me Crazy
TTITLE13=Them There Eyes
TTITLE14=Wrap Your Troubles In Dreams
TTITLE15=Star Dust
TTITLE16=I Got Rhythm
TTITLE17=Between The Devil And The Deep Blue Sea
EXTD=YEAR: 1989
EXTT0=
EXTT1=
EXTT2=
EXTT3=
EXTT4=
EXTT5=
EXTT6=
EXTT7=
EXTT8=
EXTT9=
EXTT10=
EXTT11=
EXTT12=
EXTT13=
EXTT14=
EXTT15=
EXTT16=
EXTT17=
PLAYORDER=
